<svg width="200" height="200" viewBox="0 0 200 200" fill="none" xmlns="http://www.w3.org/2000/svg">
<rect width="200" height="200" rx="17" fill="white"/>
<path d="M86.8029 32L84.4453 34.3577C83.6825 35.1204 66 53.0109 66 68.1971C66 79.6387 75.3613 89 86.8029 89C98.2445 89 107.606 79.6387 107.606 68.1971C107.606 53.0803 89.9234 35.1204 89.1606 34.3577L86.8029 32ZM76.4015 64.7299C78.3431 64.7299 79.8686 66.2555 79.8686 68.1971C79.8686 72.0109 82.9891 75.1314 86.8029 75.1314C88.7445 75.1314 90.2701 76.6569 90.2701 78.5985C90.2701 80.5401 88.7445 82.0657 86.8029 82.0657C79.1752 82.0657 72.9343 75.8248 72.9343 68.1971C72.9343 66.2555 74.4599 64.7299 76.4015 64.7299Z" fill="#5577ED"/>
<path d="M119.679 24L118.355 25.3236C117.927 25.7518 108 35.7956 108 44.3212C108 50.7445 113.255 56 119.679 56C126.102 56 131.358 50.7445 131.358 44.3212C131.358 35.8345 121.431 25.7518 121.002 25.3236L119.679 24ZM113.839 42.3747C114.929 42.3747 115.786 43.2311 115.786 44.3212C115.786 46.4623 117.538 48.2141 119.679 48.2141C120.769 48.2141 121.625 49.0706 121.625 50.1606C121.625 51.2506 120.769 52.1071 119.679 52.1071C115.397 52.1071 111.893 48.6034 111.893 44.3212C111.893 43.2311 112.749 42.3747 113.839 42.3747Z" fill="#5577ED"/>
<path d="M57.5 113.48L56.132 133.46C56.108 133.82 55.976 134 55.736 134H53.756C52.412 134 51.452 133.736 50.876 133.208C50.3 132.68 50.012 131.924 50.012 130.94C50.012 130.58 50.024 130.04 50.048 129.32C50.096 128.6 50.156 127.76 50.228 126.8C50.3 125.816 50.372 124.76 50.444 123.632C50.54 122.48 50.636 121.328 50.732 120.176C50.828 119 50.912 117.836 50.984 116.684C51.08 115.532 51.164 114.464 51.236 113.48H45.476C45.212 113.48 45.08 113.312 45.08 112.976L45.188 110.96C45.212 110.648 45.26 110.348 45.332 110.06C45.428 109.748 45.572 109.472 45.764 109.232C45.956 108.992 46.196 108.8 46.484 108.656C46.796 108.512 47.168 108.44 47.6 108.44H63.692C63.836 108.44 63.968 108.476 64.088 108.548C64.208 108.62 64.268 108.752 64.268 108.944L64.124 111.068C64.076 111.788 63.872 112.376 63.512 112.832C63.176 113.264 62.468 113.48 61.388 113.48H57.5ZM88.242 114.812C88.05 115.388 87.798 116.144 87.486 117.08C87.198 117.992 86.874 119 86.514 120.104C86.154 121.208 85.782 122.384 85.398 123.632C85.014 124.856 84.618 126.056 84.21 127.232C83.826 128.408 83.442 129.536 83.058 130.616C82.674 131.672 82.326 132.596 82.014 133.388C81.918 133.58 81.714 133.736 81.402 133.856C81.114 133.952 80.646 134 79.998 134C79.59 134 79.17 133.976 78.738 133.928C78.306 133.88 77.898 133.784 77.514 133.64C77.154 133.496 76.83 133.304 76.542 133.064C76.278 132.824 76.074 132.524 75.93 132.164C75.57 130.94 75.222 129.584 74.886 128.096C74.574 126.584 74.262 125.048 73.95 123.488C73.638 121.928 73.326 120.404 73.014 118.916C72.726 117.404 72.426 116.036 72.114 114.812C72.114 115.148 72.102 115.724 72.078 116.54C72.054 117.356 72.03 118.304 72.006 119.384C71.982 120.464 71.946 121.628 71.898 122.876C71.874 124.124 71.85 125.348 71.826 126.548C71.802 127.724 71.778 128.828 71.754 129.86C71.73 130.868 71.718 131.696 71.718 132.344C71.718 133.064 71.67 133.52 71.574 133.712C71.502 133.904 71.358 134 71.142 134H69.162C67.794 134 66.822 133.736 66.246 133.208C65.694 132.656 65.418 131.852 65.418 130.796C65.418 130.508 65.43 130.028 65.454 129.356C65.502 128.66 65.562 127.844 65.634 126.908C65.706 125.972 65.778 124.952 65.85 123.848C65.946 122.72 66.042 121.58 66.138 120.428C66.258 118.868 66.354 117.572 66.426 116.54C66.522 115.484 66.594 114.608 66.642 113.912C66.69 113.216 66.726 112.652 66.75 112.22C66.798 111.788 66.822 111.404 66.822 111.068C66.846 110.732 66.858 110.42 66.858 110.132C66.882 109.82 66.894 109.436 66.894 108.98C66.894 108.788 66.966 108.656 67.11 108.584C67.254 108.488 67.386 108.44 67.506 108.44H72.546C73.482 108.44 74.25 108.596 74.85 108.908C75.45 109.196 75.942 109.652 76.326 110.276C76.71 110.9 77.022 111.716 77.262 112.724C77.502 113.708 77.718 114.884 77.91 116.252C78.126 117.62 78.354 119.204 78.594 121.004C78.858 122.78 79.194 124.784 79.602 127.016C79.986 125.528 80.31 124.292 80.574 123.308C80.838 122.324 81.054 121.508 81.222 120.86C81.414 120.188 81.57 119.636 81.69 119.204C81.81 118.772 81.918 118.376 82.014 118.016C82.11 117.632 82.218 117.224 82.338 116.792C82.458 116.36 82.602 115.82 82.77 115.172C82.938 114.524 83.142 113.72 83.382 112.76C83.646 111.776 83.97 110.54 84.354 109.052C84.402 108.908 84.486 108.776 84.606 108.656C84.726 108.512 84.942 108.44 85.254 108.44H90.87C91.638 108.44 92.25 108.524 92.706 108.692C93.186 108.836 93.558 109.052 93.822 109.34C94.086 109.628 94.266 109.988 94.362 110.42C94.458 110.828 94.506 111.308 94.506 111.86C94.506 112.412 94.47 113.312 94.398 114.56C94.35 115.784 94.266 117.176 94.146 118.736C94.05 120.272 93.942 121.868 93.822 123.524C93.726 125.18 93.618 126.716 93.498 128.132C93.402 129.548 93.318 130.748 93.246 131.732C93.174 132.716 93.126 133.292 93.102 133.46C93.078 133.652 93.03 133.796 92.958 133.892C92.886 133.964 92.742 134 92.526 134H90.546C89.178 134 88.206 133.736 87.63 133.208C87.078 132.656 86.802 131.948 86.802 131.084C86.802 130.82 86.826 130.34 86.874 129.644C86.946 128.948 87.03 128.132 87.126 127.196C87.222 126.26 87.33 125.24 87.45 124.136C87.57 123.008 87.678 121.892 87.774 120.788C87.87 119.684 87.954 118.616 88.026 117.584C88.122 116.528 88.194 115.604 88.242 114.812ZM105.205 134.36C103.789 134.36 102.625 134.264 101.713 134.072C100.801 133.904 100.069 133.652 99.5173 133.316C98.9893 132.956 98.6173 132.512 98.4013 131.984C98.2093 131.456 98.1133 130.832 98.1133 130.112C98.1133 129.896 98.1253 129.596 98.1493 129.212C98.1733 128.804 98.2093 128.24 98.2573 127.52C98.3053 126.8 98.3653 125.876 98.4373 124.748C98.5333 123.596 98.6533 122.156 98.7973 120.428C98.9653 118.292 99.0973 116.6 99.1933 115.352C99.2893 114.104 99.3613 113.144 99.4093 112.472C99.4573 111.776 99.4813 111.296 99.4813 111.032C99.5053 110.744 99.5173 110.504 99.5173 110.312C99.5173 109.928 99.5173 109.616 99.5173 109.376C99.5413 109.136 99.5653 108.956 99.5893 108.836C99.6373 108.692 99.6973 108.596 99.7693 108.548C99.8653 108.476 99.9973 108.44 100.165 108.44C101.581 108.344 102.781 108.272 103.765 108.224C104.773 108.176 105.649 108.152 106.393 108.152C108.217 108.152 109.777 108.308 111.073 108.62C112.393 108.908 113.461 109.328 114.277 109.88C115.093 110.432 115.693 111.116 116.077 111.932C116.461 112.748 116.653 113.672 116.653 114.704C116.653 115.28 116.593 115.88 116.473 116.504C116.353 117.104 116.149 117.68 115.861 118.232C115.573 118.784 115.177 119.276 114.673 119.708C114.193 120.116 113.581 120.416 112.837 120.608C114.229 121.04 115.213 121.76 115.789 122.768C116.365 123.752 116.653 124.928 116.653 126.296C116.653 127.4 116.473 128.444 116.113 129.428C115.753 130.388 115.129 131.24 114.241 131.984C113.353 132.704 112.177 133.28 110.713 133.712C109.249 134.144 107.413 134.36 105.205 134.36ZM107.257 123.2C106.993 123.2 106.669 123.224 106.285 123.272C105.901 123.296 105.505 123.344 105.097 123.416L104.701 129.284C105.565 129.548 106.345 129.68 107.041 129.68C107.785 129.68 108.385 129.572 108.841 129.356C109.297 129.14 109.645 128.876 109.885 128.564C110.149 128.228 110.317 127.868 110.389 127.484C110.485 127.076 110.533 126.704 110.533 126.368C110.533 125.48 110.281 124.736 109.777 124.136C109.297 123.512 108.457 123.2 107.257 123.2ZM105.745 113.3C105.697 113.924 105.649 114.656 105.601 115.496C105.577 116.336 105.529 117.248 105.457 118.232C106.225 118.424 106.909 118.52 107.509 118.52C108.229 118.52 108.805 118.436 109.237 118.268C109.669 118.1 110.005 117.884 110.245 117.62C110.509 117.356 110.677 117.068 110.749 116.756C110.845 116.444 110.893 116.144 110.893 115.856C110.893 115.112 110.641 114.476 110.137 113.948C109.657 113.396 108.817 113.12 107.617 113.12C107.353 113.12 107.053 113.144 106.717 113.192C106.405 113.216 106.081 113.252 105.745 113.3ZM130.71 128.744C131.694 128.744 132.522 128.6 133.194 128.312C133.89 128.024 134.478 127.7 134.958 127.34C135.438 126.98 135.858 126.656 136.218 126.368C136.602 126.08 136.986 125.936 137.37 125.936C137.85 125.936 138.09 126.296 138.09 127.016C138.09 127.4 138.042 127.868 137.946 128.42C137.85 128.948 137.718 129.548 137.55 130.22C137.454 130.628 137.214 131.072 136.83 131.552C136.47 132.032 135.966 132.488 135.318 132.92C134.67 133.328 133.866 133.676 132.906 133.964C131.97 134.228 130.89 134.36 129.666 134.36C128.442 134.36 127.218 134.18 125.994 133.82C124.77 133.46 123.678 132.848 122.718 131.984C121.758 131.12 120.978 129.956 120.378 128.492C119.778 127.028 119.478 125.192 119.478 122.984C119.478 122.192 119.526 121.28 119.622 120.248C119.742 119.192 119.958 118.112 120.27 117.008C120.582 115.904 121.014 114.824 121.566 113.768C122.142 112.688 122.874 111.728 123.762 110.888C124.65 110.048 125.73 109.376 127.002 108.872C128.298 108.344 129.834 108.08 131.61 108.08C133.026 108.08 134.25 108.248 135.282 108.584C136.338 108.92 137.202 109.388 137.874 109.988C138.57 110.564 139.074 111.248 139.386 112.04C139.722 112.832 139.89 113.672 139.89 114.56C139.89 116.096 139.434 117.224 138.522 117.944C137.634 118.64 136.362 118.988 134.706 118.988C134.178 118.988 133.842 118.952 133.698 118.88C133.578 118.784 133.518 118.604 133.518 118.34C133.494 117.524 133.47 116.816 133.446 116.216C133.422 115.616 133.338 115.124 133.194 114.74C133.05 114.332 132.822 114.044 132.51 113.876C132.222 113.684 131.814 113.588 131.286 113.588C130.518 113.588 129.858 113.756 129.306 114.092C128.778 114.404 128.322 114.824 127.938 115.352C127.578 115.856 127.278 116.432 127.038 117.08C126.822 117.728 126.642 118.388 126.498 119.06C126.378 119.732 126.294 120.38 126.246 121.004C126.222 121.628 126.21 122.168 126.21 122.624C126.21 124.832 126.57 126.404 127.29 127.34C128.034 128.276 129.174 128.744 130.71 128.744Z" fill="#093CEF"/>
<path d="M54.352 153.208L51.824 147.336L49.264 153.208L44 141H44.56L49.28 151.912L51.552 146.696L49.088 141H49.632L51.872 146.168L54.128 141H54.624L52.128 146.76L54.384 151.96L59.12 141H59.68L54.352 153.208ZM62.6995 152.744C63.2542 152.744 63.7822 152.6 64.2835 152.312C64.7848 152.024 65.2008 151.629 65.5315 151.128V151.944C65.1368 152.381 64.7048 152.701 64.2355 152.904C63.7662 153.096 63.2328 153.192 62.6355 153.192C61.9742 153.192 61.3502 153.016 60.7635 152.664C60.1875 152.312 59.7235 151.843 59.3715 151.256C59.0302 150.669 58.8595 150.045 58.8595 149.384C58.8595 148.669 59.0302 148.029 59.3715 147.464C59.7128 146.888 60.1768 146.44 60.7635 146.12C61.3608 145.8 62.0222 145.64 62.7475 145.64C63.8568 145.64 64.8008 146.077 65.5795 146.952L60.5555 151.912C60.9075 152.2 61.2488 152.413 61.5795 152.552C61.9102 152.68 62.2835 152.744 62.6995 152.744ZM59.3715 149.336C59.3715 150.221 59.6648 150.979 60.2515 151.608L64.9395 146.952C64.5875 146.643 64.2462 146.424 63.9155 146.296C63.5848 146.157 63.1902 146.088 62.7315 146.088C62.0808 146.088 61.4995 146.232 60.9875 146.52C60.4862 146.797 60.0915 147.181 59.8035 147.672C59.5155 148.163 59.3715 148.717 59.3715 149.336ZM70.5719 153.176C69.8892 153.176 69.2545 153.005 68.6679 152.664C68.0812 152.323 67.6172 151.864 67.2759 151.288C66.9345 150.701 66.7639 150.072 66.7639 149.4C66.7639 148.728 66.9345 148.104 67.2759 147.528C67.6172 146.941 68.0812 146.477 68.6679 146.136C69.2545 145.795 69.8892 145.624 70.5719 145.624C71.2652 145.624 71.9212 145.811 72.5399 146.184C73.1585 146.547 73.5905 147.021 73.8359 147.608V145.8H74.3479V153H73.8359V151.208C73.5479 151.805 73.0999 152.285 72.4919 152.648C71.8945 153 71.2545 153.176 70.5719 153.176ZM70.6039 152.728C71.1905 152.728 71.7345 152.579 72.2359 152.28C72.7372 151.971 73.1319 151.565 73.4199 151.064C73.7185 150.552 73.8679 149.997 73.8679 149.4C73.8679 148.813 73.7185 148.264 73.4199 147.752C73.1212 147.24 72.7212 146.835 72.2199 146.536C71.7185 146.227 71.1745 146.072 70.5879 146.072C70.0012 146.072 69.4519 146.227 68.9399 146.536C68.4385 146.845 68.0332 147.256 67.7239 147.768C67.4252 148.28 67.2759 148.829 67.2759 149.416C67.2759 150.003 67.4252 150.552 67.7239 151.064C68.0332 151.565 68.4439 151.971 68.9559 152.28C69.4679 152.579 70.0172 152.728 70.6039 152.728ZM78.9434 153.096C78.154 153.096 77.498 152.856 76.9754 152.376C76.4634 151.896 76.2074 151.235 76.2074 150.392V142.904H76.7194V145.8H78.9274V146.248H76.7194V150.392C76.7194 151.096 76.9274 151.651 77.3434 152.056C77.77 152.451 78.3034 152.648 78.9434 152.648V153.096ZM80.2893 141H80.8013V147.288C81.0253 146.808 81.4039 146.413 81.9373 146.104C82.4813 145.784 83.0306 145.624 83.5853 145.624C84.5986 145.624 85.3773 145.901 85.9213 146.456C86.4759 147.011 86.7533 147.795 86.7533 148.808V153H86.2413V148.808C86.2413 147.933 86.0066 147.261 85.5373 146.792C85.0786 146.312 84.4279 146.072 83.5853 146.072C83.0733 146.072 82.6039 146.195 82.1773 146.44C81.7506 146.675 81.4146 147.005 81.1693 147.432C80.9239 147.848 80.8013 148.307 80.8013 148.808V153H80.2893V141ZM92.2776 152.744C92.8323 152.744 93.3603 152.6 93.8616 152.312C94.363 152.024 94.779 151.629 95.1096 151.128V151.944C94.715 152.381 94.283 152.701 93.8136 152.904C93.3443 153.096 92.811 153.192 92.2136 153.192C91.5523 153.192 90.9283 153.016 90.3416 152.664C89.7656 152.312 89.3016 151.843 88.9496 151.256C88.6083 150.669 88.4376 150.045 88.4376 149.384C88.4376 148.669 88.6083 148.029 88.9496 147.464C89.291 146.888 89.755 146.44 90.3416 146.12C90.939 145.8 91.6003 145.64 92.3256 145.64C93.435 145.64 94.379 146.077 95.1576 146.952L90.1336 151.912C90.4856 152.2 90.827 152.413 91.1576 152.552C91.4883 152.68 91.8616 152.744 92.2776 152.744ZM88.9496 149.336C88.9496 150.221 89.243 150.979 89.8296 151.608L94.5176 146.952C94.1656 146.643 93.8243 146.424 93.4936 146.296C93.163 146.157 92.7683 146.088 92.3096 146.088C91.659 146.088 91.0776 146.232 90.5656 146.52C90.0643 146.797 89.6696 147.181 89.3816 147.672C89.0936 148.163 88.9496 148.717 88.9496 149.336ZM96.758 145.8H97.27V147.464C97.4833 146.941 97.7927 146.531 98.198 146.232C98.614 145.933 99.0833 145.784 99.606 145.784C99.9367 145.784 100.273 145.853 100.614 145.992V146.584C100.305 146.349 99.958 146.232 99.574 146.232C99.19 146.232 98.8167 146.349 98.454 146.584C98.102 146.819 97.814 147.133 97.59 147.528C97.3767 147.923 97.27 148.344 97.27 148.792V153H96.758V145.8ZM116.887 153H116.327L114.055 148.424H107.687L105.463 153H104.903L110.887 140.712L116.887 153ZM113.863 147.96L110.855 141.864L107.911 147.96H113.863ZM118.414 145.8H118.926V147.56C119.214 146.984 119.662 146.52 120.27 146.168C120.878 145.805 121.518 145.624 122.19 145.624C122.884 145.624 123.518 145.795 124.094 146.136C124.681 146.477 125.145 146.936 125.486 147.512C125.828 148.088 125.998 148.717 125.998 149.4C125.998 150.083 125.828 150.712 125.486 151.288C125.145 151.864 124.681 152.323 124.094 152.664C123.518 153.005 122.884 153.176 122.19 153.176C121.54 153.176 120.91 153 120.302 152.648C119.705 152.296 119.246 151.832 118.926 151.256V156.2H118.414V145.8ZM122.222 152.728C122.809 152.728 123.353 152.579 123.854 152.28C124.356 151.971 124.75 151.565 125.038 151.064C125.337 150.552 125.486 149.997 125.486 149.4C125.486 148.813 125.337 148.264 125.038 147.752C124.74 147.24 124.34 146.835 123.838 146.536C123.337 146.227 122.793 146.072 122.206 146.072C121.62 146.072 121.07 146.227 120.558 146.536C120.057 146.845 119.652 147.256 119.342 147.768C119.044 148.28 118.894 148.829 118.894 149.416C118.894 150.003 119.044 150.552 119.342 151.064C119.652 151.565 120.062 151.971 120.574 152.28C121.086 152.579 121.636 152.728 122.222 152.728ZM127.602 145.8H128.114V147.56C128.402 146.984 128.85 146.52 129.458 146.168C130.066 145.805 130.706 145.624 131.378 145.624C132.071 145.624 132.706 145.795 133.282 146.136C133.868 146.477 134.332 146.936 134.674 147.512C135.015 148.088 135.186 148.717 135.186 149.4C135.186 150.083 135.015 150.712 134.674 151.288C134.332 151.864 133.868 152.323 133.282 152.664C132.706 153.005 132.071 153.176 131.378 153.176C130.727 153.176 130.098 153 129.49 152.648C128.892 152.296 128.434 151.832 128.114 151.256V156.2H127.602V145.8ZM131.41 152.728C131.996 152.728 132.54 152.579 133.042 152.28C133.543 151.971 133.938 151.565 134.226 151.064C134.524 150.552 134.674 149.997 134.674 149.4C134.674 148.813 134.524 148.264 134.226 147.752C133.927 147.24 133.527 146.835 133.026 146.536C132.524 146.227 131.98 146.072 131.394 146.072C130.807 146.072 130.258 146.227 129.746 146.536C129.244 146.845 128.839 147.256 128.53 147.768C128.231 148.28 128.082 148.829 128.082 149.416C128.082 150.003 128.231 150.552 128.53 151.064C128.839 151.565 129.25 151.971 129.762 152.28C130.274 152.579 130.823 152.728 131.41 152.728Z" fill="#093CEF"/>
</svg>
